<?xml version="1.0" standalone="no"?>
<!DOCTYPE svg PUBLIC "-//W3C//DTD SVG 20010904//EN"
 "http://www.w3.org/TR/2001/REC-SVG-20010904/DTD/svg10.dtd">
<svg version="1.0" xmlns="http://www.w3.org/2000/svg"
 width="512.000000pt" height="512.000000pt" viewBox="0 0 512.000000 512.000000"
 preserveAspectRatio="xMidYMid meet">

<g transform="translate(0.000000,512.000000) scale(0.100000,-0.100000)"
fill="#000000" stroke="none">
<path d="M0 2565 l0 -2555 2555 0 2555 0 0 2555 0 2555 -2555 0 -2555 0 0
-2555z m2843 375 c-7 -27 -18 -36 -58 -53 -72 -30 -200 -29 -276 1 -52 21
-156 98 -145 109 2 2 19 7 38 9 25 4 29 2 18 -5 -8 -6 -10 -11 -4 -11 6 0 14
3 18 7 9 10 96 10 96 0 0 -5 6 -5 13 0 17 11 66 12 73 2 3 -5 9 -7 14 -4 5 3
38 8 72 10 42 3 58 1 48 -5 -9 -6 -10 -10 -3 -10 6 0 14 4 17 9 3 4 21 7 41 4
31 -3 35 -1 37 19 1 13 3 7 5 -14 2 -20 0 -51 -4 -68z m-628 -111 c6 0 75 1
155 2 80 1 150 0 155 -1 6 -1 12 -2 15 -1 3 1 64 3 136 4 l132 2 -9 -24 c-29
-75 -129 -168 -218 -202 -169 -64 -328 -35 -474 86 -48 40 -97 105 -97 129 0
7 95 12 150 8 25 -2 50 -3 55 -3z m1080 -406 c-51 -6 -75 -27 -75 -68 0 -37
18 -56 75 -79 62 -26 85 -53 85 -100 0 -32 -7 -47 -32 -73 -18 -18 -41 -33
-52 -32 -15 0 -17 2 -6 6 36 13 60 47 60 83 0 42 -16 60 -75 84 -60 25 -85 53
-85 95 1 60 38 91 105 89 l40 -1 -40 -4z m-2335 -123 c0 -143 12 -182 61 -199
59 -21 129 11 152 70 4 11 6 10 6 -3 1 -21 -66 -86 -97 -94 -34 -9 -89 2 -110
23 -38 36 -46 66 -50 196 -4 124 -4 127 17 127 20 0 21 -4 21 -120z m227 -52
c-2 -35 -3 -9 -3 57 0 66 1 94 3 63 2 -32 2 -86 0 -120z m338 -17 c39 -44 73
-80 77 -80 4 -1 9 59 11 132 l3 132 2 -167 c1 -107 -2 -168 -8 -168 -5 0 -10
4 -10 8 0 10 -229 265 -242 270 -4 2 -8 18 -8 35 l0 32 53 -58 c28 -31 84 -93
122 -136z m315 19 c0 -163 -1 -170 -20 -170 -19 0 -20 7 -20 170 0 163 1 170
20 170 19 0 20 -7 20 -170z m253 58 c30 -62 58 -123 62 -135 3 -13 10 -23 13
-23 4 0 34 61 66 135 33 74 61 133 63 131 3 -2 -28 -79 -68 -170 l-74 -165
-37 77 c-35 70 -68 144 -105 230 -12 30 -12 32 6 32 14 0 32 -28 74 -112z
m480 105 l-73 -4 0 -69 0 -70 68 -2 67 -2 -67 -3 -68 -4 0 -79 0 -80 70 0 c40
0 70 -4 70 -10 0 -6 -35 -10 -85 -10 l-85 0 0 170 0 170 88 -2 87 -2 -72 -3z
m408 -22 c30 -36 25 -84 -12 -115 -17 -14 -37 -26 -45 -26 -22 0 -18 -9 45
-86 33 -40 57 -75 54 -78 -18 -17 -44 2 -98 74 -33 44 -68 79 -77 79 -16 1
-18 -9 -18 -79 0 -64 -3 -80 -15 -80 -13 0 -15 26 -15 171 l0 171 81 -4 c70
-3 83 -6 100 -27z m794 -130 c37 -88 67 -164 66 -168 0 -4 -8 -8 -17 -8 -10 0
-26 24 -43 65 l-28 65 -67 3 -67 3 -35 -73 c-19 -40 -32 -64 -29 -53 10 36
140 325 146 325 3 0 36 -72 74 -159z m265 -1 l0 -160 65 0 c37 0 65 -4 65 -10
0 -6 -33 -10 -80 -10 l-80 0 0 170 c0 144 2 170 15 170 13 0 15 -24 15 -160z
m-828 -164 c8 -8 23 -16 34 -19 17 -4 17 -5 -2 -6 -12 0 -32 8 -45 19 -13 10
-19 19 -12 20 6 0 18 -6 25 -14z m-797 -311 c0 -78 -3 -95 -15 -95 -12 0 -15
17 -15 95 0 78 3 95 15 95 12 0 15 -17 15 -95z m229 89 c17 -7 22 -44 6 -44
-5 0 -10 7 -10 15 0 22 -52 19 -78 -5 -16 -15 -22 -32 -22 -65 0 -38 4 -46 28
-59 15 -7 43 -12 62 -9 30 3 32 2 16 -8 -25 -16 -94 -5 -111 18 -17 21 -19 86
-5 113 19 36 77 58 114 44z m206 -4 c0 -5 -11 -10 -25 -10 -25 0 -25 -1 -27
-87 l-2 -88 -3 88 c-4 84 -5 87 -28 87 -13 0 -27 5 -30 10 -4 6 17 10 54 10
34 0 61 -4 61 -10z"/>
<path d="M2830 2335 c0 -86 6 -92 69 -75 45 12 61 33 61 79 0 46 -31 71 -85
71 l-45 0 0 -75z"/>
<path d="M3656 2304 c-14 -31 -26 -60 -26 -65 0 -5 25 -9 55 -9 30 0 55 4 55
9 0 12 -49 121 -54 121 -3 0 -16 -25 -30 -56z"/>
</g>
</svg>
