<svg width="201" height="25" viewBox="0 0 201 25" fill="none" xmlns="http://www.w3.org/2000/svg">
<path d="M9.616 24.48C7.76 24.48 6.128 24.1067 4.72 23.36C3.312 22.6027 2.21333 21.5413 1.424 20.176C0.634667 18.8107 0.24 17.2053 0.24 15.36V0.991999L4.656 0.959999V15.328C4.656 16.0853 4.784 16.7733 5.04 17.392C5.296 18.0107 5.648 18.544 6.096 18.992C6.55467 19.44 7.08267 19.7867 7.68 20.032C8.288 20.2667 8.93333 20.384 9.616 20.384C10.32 20.384 10.9707 20.2613 11.568 20.016C12.176 19.7707 12.704 19.424 13.152 18.976C13.6 18.528 13.9467 17.9947 14.192 17.376C14.448 16.7573 14.576 16.0747 14.576 15.328V0.959999H18.992V15.36C18.992 17.2053 18.5973 18.8107 17.808 20.176C17.0187 21.5413 15.92 22.6027 14.512 23.36C13.104 24.1067 11.472 24.48 9.616 24.48Z" fill="white"/>
<path d="M34.5947 24V15.84C34.5947 15.4453 34.5734 14.944 34.5307 14.336C34.4881 13.7173 34.3548 13.0987 34.1308 12.48C33.9068 11.8613 33.5388 11.344 33.0268 10.928C32.5254 10.512 31.8108 10.304 30.8828 10.304C30.5094 10.304 30.1094 10.3627 29.6828 10.48C29.2561 10.5973 28.8561 10.8267 28.4827 11.168C28.1094 11.4987 27.8001 11.9893 27.5548 12.64C27.3201 13.2907 27.2028 14.1547 27.2028 15.232L24.7068 14.048C24.7068 12.6827 24.9841 11.4027 25.5387 10.208C26.0934 9.01333 26.9254 8.048 28.0348 7.312C29.1548 6.576 30.5627 6.208 32.2587 6.208C33.6134 6.208 34.7174 6.43733 35.5707 6.896C36.4241 7.35467 37.0854 7.936 37.5548 8.64C38.0347 9.344 38.3761 10.08 38.5787 10.848C38.7814 11.6053 38.9041 12.2987 38.9467 12.928C38.9894 13.5573 39.0107 14.016 39.0107 14.304V24H34.5947ZM22.7868 24V6.72H26.6588V12.448H27.2028V24H22.7868Z" fill="white"/>
<path d="M42.5225 4.32V0.48H46.8745V4.32H42.5225ZM42.5225 24V6.72H46.8745V24H42.5225Z" fill="white"/>
<path d="M56.0232 24L49.7512 6.72H54.1033L58.1993 18.688L62.2952 6.72H66.6473L60.3752 24H56.0232Z" fill="white"/>
<path d="M76.6108 24.48C74.8401 24.48 73.2774 24.1013 71.9228 23.344C70.5788 22.576 69.5228 21.5253 68.7548 20.192C67.9974 18.848 67.6188 17.312 67.6188 15.584C67.6188 13.696 67.9921 12.0533 68.7388 10.656C69.4854 9.25867 70.5148 8.176 71.8268 7.408C73.1388 6.62933 74.6481 6.24 76.3548 6.24C78.1681 6.24 79.7094 6.66667 80.9788 7.52C82.2481 8.37333 83.1868 9.57333 83.7948 11.12C84.4028 12.6667 84.6161 14.4853 84.4348 16.576H80.1308V14.976C80.1308 13.216 79.8481 11.952 79.2828 11.184C78.7281 10.4053 77.8161 10.016 76.5468 10.016C75.0641 10.016 73.9708 10.4693 73.2668 11.376C72.5734 12.272 72.2268 13.6 72.2268 15.36C72.2268 16.9707 72.5734 18.2187 73.2668 19.104C73.9708 19.9787 75.0001 20.416 76.3548 20.416C77.2081 20.416 77.9388 20.2293 78.5468 19.856C79.1548 19.4827 79.6188 18.944 79.9388 18.24L84.2908 19.488C83.6401 21.0667 82.6108 22.2933 81.2028 23.168C79.8054 24.0427 78.2748 24.48 76.6108 24.48ZM70.8828 16.576V13.344H82.3388V16.576H70.8828Z" fill="white"/>
<path d="M88.0475 24V6.72H91.8875V10.944L91.4715 10.4C91.6955 9.80267 91.9942 9.25867 92.3675 8.768C92.7408 8.27733 93.1995 7.872 93.7435 7.552C94.1595 7.296 94.6128 7.09867 95.1035 6.96C95.5942 6.81067 96.1008 6.72 96.6235 6.688C97.1462 6.64533 97.6688 6.656 98.1915 6.72V10.784C97.7115 10.6347 97.1515 10.5867 96.5115 10.64C95.8822 10.6827 95.3115 10.8267 94.7995 11.072C94.2875 11.3067 93.8555 11.6213 93.5035 12.016C93.1515 12.4 92.8848 12.8587 92.7035 13.392C92.5222 13.9147 92.4315 14.5067 92.4315 15.168V24H88.0475Z" fill="white"/>
<path d="M107.042 24.48C104.866 24.48 103.106 23.9893 101.762 23.008C100.429 22.016 99.618 20.6187 99.33 18.816L103.778 18.144C103.959 18.9547 104.359 19.5893 104.978 20.048C105.607 20.5067 106.402 20.736 107.362 20.736C108.151 20.736 108.759 20.5867 109.186 20.288C109.613 19.9787 109.826 19.552 109.826 19.008C109.826 18.6667 109.741 18.3947 109.57 18.192C109.399 17.9787 109.015 17.7707 108.418 17.568C107.831 17.3653 106.914 17.0987 105.666 16.768C104.258 16.4053 103.133 16 102.29 15.552C101.447 15.104 100.839 14.5707 100.466 13.952C100.093 13.3227 99.906 12.5653 99.906 11.68C99.906 10.5707 100.189 9.61067 100.754 8.8C101.319 7.97867 102.114 7.34933 103.138 6.912C104.173 6.464 105.389 6.24 106.786 6.24C108.141 6.24 109.341 6.448 110.386 6.864C111.431 7.28 112.274 7.872 112.914 8.64C113.565 9.408 113.965 10.3147 114.114 11.36L109.666 12.16C109.591 11.52 109.314 11.0133 108.834 10.64C108.354 10.2667 107.703 10.048 106.882 9.984C106.082 9.93067 105.437 10.0373 104.946 10.304C104.466 10.5707 104.226 10.9547 104.226 11.456C104.226 11.7547 104.327 12.0053 104.53 12.208C104.743 12.4107 105.175 12.6187 105.826 12.832C106.487 13.0453 107.49 13.3227 108.834 13.664C110.146 14.0053 111.197 14.4053 111.986 14.864C112.786 15.312 113.367 15.856 113.73 16.496C114.093 17.1253 114.274 17.888 114.274 18.784C114.274 20.5547 113.634 21.9467 112.354 22.96C111.074 23.9733 109.303 24.48 107.042 24.48Z" fill="white"/>
<path d="M122.27 24.48C121.033 24.48 119.982 24.2453 119.118 23.776C118.265 23.296 117.614 22.6613 117.166 21.872C116.729 21.072 116.51 20.192 116.51 19.232C116.51 18.432 116.633 17.7013 116.878 17.04C117.123 16.3787 117.518 15.7973 118.062 15.296C118.617 14.784 119.358 14.3573 120.286 14.016C120.926 13.7813 121.689 13.5733 122.574 13.392C123.459 13.2107 124.462 13.04 125.582 12.88C126.702 12.7093 127.934 12.5227 129.278 12.32L127.71 13.184C127.71 12.16 127.465 11.408 126.974 10.928C126.483 10.448 125.662 10.208 124.51 10.208C123.87 10.208 123.203 10.3627 122.51 10.672C121.817 10.9813 121.331 11.5307 121.054 12.32L117.118 11.072C117.555 9.64267 118.377 8.48 119.582 7.584C120.787 6.688 122.43 6.24 124.51 6.24C126.035 6.24 127.39 6.47467 128.574 6.944C129.758 7.41333 130.654 8.224 131.262 9.376C131.603 10.016 131.806 10.656 131.87 11.296C131.934 11.936 131.966 12.6507 131.966 13.44V24H128.158V20.448L128.702 21.184C127.859 22.3467 126.947 23.1893 125.966 23.712C124.995 24.224 123.763 24.48 122.27 24.48ZM123.198 21.056C123.998 21.056 124.67 20.9173 125.214 20.64C125.769 20.352 126.206 20.0267 126.526 19.664C126.857 19.3013 127.081 18.9973 127.198 18.752C127.422 18.2827 127.55 17.7387 127.582 17.12C127.625 16.4907 127.646 15.968 127.646 15.552L128.926 15.872C127.635 16.0853 126.59 16.2667 125.79 16.416C124.99 16.5547 124.345 16.6827 123.854 16.8C123.363 16.9173 122.931 17.0453 122.558 17.184C122.131 17.3547 121.785 17.5413 121.518 17.744C121.262 17.936 121.07 18.1493 120.942 18.384C120.825 18.6187 120.766 18.88 120.766 19.168C120.766 19.5627 120.862 19.904 121.054 20.192C121.257 20.4693 121.539 20.6827 121.902 20.832C122.265 20.9813 122.697 21.056 123.198 21.056Z" fill="white"/>
<path d="M135.486 24V0.48H139.838V24H135.486Z" fill="white"/>
<path d="M151.361 24V0.959999H155.713V24H151.361Z" fill="white"/>
<path d="M169.758 24.48C167.454 24.48 165.465 23.9787 163.79 22.976C162.126 21.9733 160.841 20.5707 159.934 18.768C159.038 16.9653 158.59 14.8693 158.59 12.48C158.59 10.0907 159.038 7.99467 159.934 6.192C160.841 4.38933 162.126 2.98667 163.79 1.984C165.465 0.981333 167.454 0.48 169.758 0.48C172.403 0.48 174.622 1.136 176.414 2.448C178.217 3.76 179.486 5.536 180.222 7.776L175.838 8.992C175.411 7.59467 174.691 6.512 173.678 5.744C172.665 4.96533 171.358 4.576 169.758 4.576C168.297 4.576 167.075 4.90133 166.094 5.552C165.123 6.20267 164.393 7.12 163.902 8.304C163.411 9.488 163.166 10.88 163.166 12.48C163.166 14.08 163.411 15.472 163.902 16.656C164.393 17.84 165.123 18.7573 166.094 19.408C167.075 20.0587 168.297 20.384 169.758 20.384C171.358 20.384 172.665 19.9947 173.678 19.216C174.691 18.4373 175.411 17.3547 175.838 15.968L180.222 17.184C179.486 19.424 178.217 21.2 176.414 22.512C174.622 23.824 172.403 24.48 169.758 24.48Z" fill="white"/>
<path d="M188.769 24V5.024H181.505V0.959999H200.385V5.024H193.121V24H188.769Z" fill="white"/>
</svg>
